<?xml version="1.0" encoding="UTF-8" standalone="no"?>
<!-- Created with Inkscape (http://www.inkscape.org/) -->

<svg
   width="179.58139mm"
   height="52.377911mm"
   viewBox="0 0 179.58139 52.37791"
   version="1.1"
   id="svg1"
   inkscape:version="1.4.3 (0d15f75042, 2025-12-25)"
   sodipodi:docname="logo-horizontal-daylight-header.svg"
   xmlns:inkscape="http://www.inkscape.org/namespaces/inkscape"
   xmlns:sodipodi="http://sodipodi.sourceforge.net/DTD/sodipodi-0.dtd"
   xmlns:xlink="http://www.w3.org/1999/xlink"
   xmlns="http://www.w3.org/2000/svg"
   xmlns:svg="http://www.w3.org/2000/svg">
  <sodipodi:namedview
     id="namedview1"
     pagecolor="#f6f5f3"
     bordercolor="#000000"
     borderopacity="0.25"
     inkscape:showpageshadow="2"
     inkscape:pageopacity="0.0"
     inkscape:pagecheckerboard="0"
     inkscape:deskcolor="#d1d1d1"
     inkscape:document-units="mm"
     inkscape:zoom="0.91936027"
     inkscape:cx="331.75243"
     inkscape:cy="104.42044"
     inkscape:window-width="1536"
     inkscape:window-height="719"
     inkscape:window-x="0"
     inkscape:window-y="32"
     inkscape:window-maximized="1"
     inkscape:current-layer="layer1" />
  <defs
     id="defs1">
    <linearGradient
       id="linearGradient1"
       inkscape:collect="always">
      <stop
         style="stop-color:#4a4a4a;stop-opacity:0.89019608;"
         offset="0"
         id="stop1" />
      <stop
         style="stop-color:#4a4a4a;stop-opacity:0;"
         offset="1"
         id="stop2" />
    </linearGradient>
    <linearGradient
       inkscape:collect="always"
       xlink:href="#linearGradient1"
       id="linearGradient2"
       x1="2738.9482"
       y1="458.10461"
       x2="2743.3855"
       y2="160.80658"
       gradientUnits="userSpaceOnUse" />
  </defs>
  <g
     inkscape:label="Layer 1"
     inkscape:groupmode="layer"
     id="layer1"
     transform="translate(-15.192687,-122.03795)">
    <g
       id="g23"
       transform="matrix(0.12971479,0,0,0.12971479,-331.1679,102.33012)">
      <path
         style="fill:#8c8c8c;fill-opacity:1"
         d="m 2896.5777,513.56579 c -0.1662,-0.5831 -0.2318,-8.88201 -0.1458,-18.44202 l 0.1564,-17.38185 11.701,-2.36077 c 25.9688,-5.23943 47.6175,-16.55225 66.703,-34.85651 11.5475,-11.07485 19.214,-21.20591 25.8375,-34.14377 10.7316,-20.9621 14.5012,-36.55784 14.5933,-60.37526 0.048,-12.4133 -0.3807,-17.53797 -2.153,-25.73368 -5.06,-23.39927 -14.9693,-43.22523 -30.8165,-61.65582 -7.3738,-8.57586 -22.7811,-21.06601 -31.6116,-25.62644 -3.7104,-1.91624 -6.7479,-4.02043 -6.75,-4.67599 0,-1.13489 -6.1294,-21.89855 -7.5346,-25.53843 -0.6172,-1.59879 -0.2365,-1.5819 5.0067,0.22202 16.9821,5.8427 40.0465,19.65758 54.61,32.70979 27.1797,24.35924 45.4906,56.6266 51.5259,90.79854 2.412,13.65731 2.3779,42.10837 -0.067,56.00001 -9.8876,56.17516 -53.3898,105.57715 -109.0445,123.83308 -16.9568,5.56217 -41.292,9.74857 -42.0106,7.2271 z"
         id="path21"
         sodipodi:nodetypes="sscssssssscsssscssscc" />
      <path
         style="fill:#4a4a4a;fill-opacity:1"
         d="m 2904.8617,430.36241 v -36.74723 l -5.4909,-7.38751 c -3.02,-4.06314 -6.3648,-9.68621 -7.4329,-12.49571 -4.1713,-10.97217 -6.0407,-37.60313 -6.1104,-87.0431 -0.08,-57.06431 2.3067,-70.98389 14.4429,-84.22028 4.3289,-4.72128 13.9051,-9.12667 19.8413,-9.12765 l 4.75,-7.9e-4 v 133.41729 133.4173 l -4.25,1.48559 c -2.3375,0.81707 -6.8375,2.37743 -10,3.46745 l -5.75,1.98186 z m -62.25,32.18488 -7.7499,-2.61362 v -51.3366 c 0,-59.44643 0.8271,-54.47683 -11.1174,-66.80485 -4.3247,-4.46358 -7.3886,-8.63487 -8.3556,-11.37574 -1.9921,-5.64599 -2.0009,-23.53064 -0.028,-56.51566 0.8244,-13.78338 1.6119,-28.66068 1.75,-33.06068 0.2381,-7.58753 0.3741,-8.0174 2.638,-8.33749 1.3128,-0.18562 2.7684,0.26438 3.2347,1 0.4662,0.73562 0.8546,16.88499 0.8631,35.88748 0.011,25.52129 0.3289,34.8636 1.2153,35.75001 1.6941,1.69411 4.4748,1.48967 5.193,-0.38179 0.3338,-0.86998 0.6082,-9.08248 0.6098,-18.25 0,-9.16752 0.2966,-25.07452 0.6557,-35.34888 l 0.6529,-18.68067 2.4994,-0.62732 c 1.5696,-0.39393 2.8081,-0.1407 3.329,0.68067 0.4561,0.71939 0.8363,17.34039 0.8448,36.93554 0.013,30.63182 0.2282,35.8043 1.534,36.88802 1.2429,1.03151 1.8787,0.93478 3.5,-0.53255 1.9047,-1.72378 1.9812,-3.17605 1.9812,-37.61897 v -35.82595 l 2.4432,-0.61319 c 1.3437,-0.33726 2.9187,-0.31927 3.5,0.04 0.6447,0.39847 1.0577,5.21203 1.059,12.34415 0,6.43004 0.2994,22.87067 0.6626,36.53476 0.5459,20.53358 0.9161,24.94187 2.1338,25.40915 0.8103,0.31095 2.1996,0.10748 3.0874,-0.45216 1.4217,-0.89627 1.6736,-5.35399 2.114,-37.40915 l 0.5,-36.39162 2.75,-0.31642 c 2.2821,-0.26259 2.75,0.0681 2.75,1.94344 0,1.24292 0.4412,8.36031 0.9804,15.81642 4.7534,65.72803 5.0656,75.61757 2.575,81.57828 -0.8942,2.14012 -4.4685,6.83574 -7.9429,10.43471 -11.4111,11.82031 -10.6125,6.58958 -10.6125,69.5037 0,29.99691 -0.3375,54.49951 -0.75,54.45022 -0.4125,-0.0493 -4.2375,-1.26574 -8.5,-2.70324 z"
         id="path22"
         sodipodi:nodetypes="ccsscsscccssccscssssssscsscscsscssscssssssscssssssss" />
      <path
         style="fill:url(#linearGradient2);fill-opacity:1"
         d="m 2855.5412,512.99564 c -59.9121,-6.78559 -110.7433,-44.60221 -134.2967,-99.91217 -7.8417,-18.41439 -11.1247,-36.23993 -11.1385,-60.47892 -0.012,-20.40454 1.2378,-28.58423 7.0462,-46.12656 17.2712,-52.16199 56.8281,-90.02999 109.3891,-104.71859 11.3412,-3.16942 24.8997,-5.28797 39.9283,-6.23893 l 11.0267,-0.69774 -5.2261,10.04872 -5.2261,10.04872 -9.5014,1.17935 c -22.7734,2.8267 -41.1264,9.41534 -59.2229,21.26069 -11.6283,7.61147 -19.4278,14.40439 -27.5344,23.98106 -21.4508,25.3406 -31.2441,51.5893 -31.2441,83.74276 0,22.59135 3.2578,36.67675 13.0723,56.52052 16.7003,33.7658 45.3251,58.06515 82.9808,70.44187 9.1942,3.02195 27.0469,6.05813 35.6217,6.05813 h 7.3251 v 18 18 l -7.75,-0.12974 c -4.2625,-0.0714 -11.125,-0.51198 -15.25,-0.97917 z"
         id="path23"
         sodipodi:nodetypes="sscssscccssssssscccss" />
    </g>
    <g
       id="g20"
       style="font-size:140.45px;line-height:76.8px;font-family:Inter;-inkscape-font-specification:'Inter, @opsz=32';font-variation-settings:'opsz' 32;text-align:center;letter-spacing:3.39px;word-spacing:0px;text-anchor:middle;fill:#8e8e8e;fill-opacity:1"
       aria-label="alacartapr"
       transform="matrix(0.17235276,0,0,0.17235276,-363.03928,40.906912)">
      <path
         style="font-size:144.976px;line-height:95.4202px;-inkscape-font-specification:'Inter, @opsz=32,wght=300';font-variation-settings:'opsz' 32, 'wght' 300;letter-spacing:2.21058px;text-orientation:sideways;opacity:0.8;stroke-width:3.63547;fill:#8c8c8c;fill-opacity:1"
         d="M 3088.7649,690.81438 V 586.4713 h 8.9194 v 14.08702 h 0.071 q 2.1236,-4.74286 5.9463,-8.21153 3.8226,-3.46866 8.8486,-5.30918 5.026,-1.9113 10.6183,-1.9113 9.5566,0 16.9186,4.88444 7.3621,4.81366 11.4679,13.5915 4.1765,8.70706 4.1765,20.24567 0,11.53862 -4.1765,20.24568 -4.1058,8.70705 -11.4679,13.5915 -7.2912,4.88444 -16.9186,4.88444 -5.5923,0 -10.4767,-1.84052 -4.8845,-1.84051 -8.6363,-5.30917 -3.7518,-3.53946 -6.0879,-8.35311 h -0.1415 v 43.74764 z m 33.1292,-36.59795 q 7.1497,0 12.6713,-3.53945 5.5923,-3.53945 8.7778,-10.3352 3.1855,-6.79575 3.1855,-16.49386 0,-9.76889 -3.1855,-16.56464 -3.1855,-6.79575 -8.7778,-10.3352 -5.5216,-3.53945 -12.6713,-3.53945 -7.5036,0 -13.0959,3.75182 -5.5216,3.75182 -8.5655,10.61836 -3.0439,6.79575 -3.0439,16.06911 0,9.20258 3.0439,16.06912 3.0439,6.79575 8.5655,10.54757 5.5923,3.75182 13.0959,3.75182 z m 50.1348,7.00812 V 586.4713 h 8.7071 v 12.45887 h 0.2123 q 2.2653,-6.08786 7.4329,-9.6981 5.1676,-3.68103 12.5297,-3.68103 1.3449,0 2.336,0.14158 0.991,0.0708 1.6281,0.14158 v 9.13179 q -0.5663,-0.14158 -2.0528,-0.35395 -1.4158,-0.21237 -3.3979,-0.21237 -5.026,0 -9.2026,2.33604 -4.1765,2.26525 -6.6542,6.72496 -2.4776,4.45972 -2.4776,11.0431 v 46.72078 z"
         id="text8"
         aria-label="pr" />
      <path
         d="m 2571.3451,657.81852 q -7.2008,0 -12.8929,-2.46885 -5.692,-2.46885 -9.0524,-7.33796 -3.2918,-4.9377 -3.2918,-12.1385 0,-6.2407 2.4003,-10.14971 2.4688,-3.90901 6.515,-6.10354 4.1147,-2.26311 9.2582,-3.42896 5.212,-1.16584 10.6297,-1.85163 6.9265,-0.96011 10.9041,-1.44016 3.9776,-0.48006 5.6235,-1.57732 1.7145,-1.09727 1.7145,-3.84043 v -0.68579 q 0,-3.97759 -1.9203,-6.99507 -1.8516,-3.08606 -5.4863,-4.80054 -3.5661,-1.78305 -8.641,-1.78305 -5.0062,0 -8.9152,1.71447 -3.8405,1.6459 -6.1722,4.52622 -2.2631,2.88033 -2.5374,6.51502 h -11.8642 q 0.3429,-6.65217 4.1148,-11.79561 3.7718,-5.21201 10.2868,-8.22949 6.5151,-3.01748 15.0874,-3.01748 6.3093,0 11.3842,1.71448 5.1434,1.71448 8.7095,4.86911 3.6347,3.15464 5.5549,7.54371 1.9202,4.38906 1.9202,9.73823 v 49.92558 h -11.5212 v -10.28686 h -0.2744 q -1.303,2.606 -3.8404,5.28059 -2.5374,2.606 -6.8579,4.38906 -4.2519,1.71448 -10.8355,1.71448 z m 1.6459,-10.42403 q 7.1322,0 11.5899,-2.53742 4.4576,-2.60601 6.515,-6.72075 2.0574,-4.11475 2.0574,-8.84671 v -9.05244 q -0.6858,0.61721 -2.5375,1.16585 -1.783,0.54863 -4.4576,1.09726 -2.606,0.48006 -5.6921,0.96011 -3.0175,0.48005 -6.1035,0.89153 -4.1833,0.54863 -7.9552,1.92021 -3.7033,1.303 -6.035,3.77185 -2.3316,2.40027 -2.3316,6.51502 0,3.36037 1.783,5.82922 1.8516,2.40027 5.212,3.70327 3.3604,1.303 7.9552,1.303 z m 64.0139,-92.8561 v 102.18286 h -11.6584 V 554.53839 Z m 42.7544,103.28013 q -7.2008,0 -12.8928,-2.46885 -5.6921,-2.46885 -9.0525,-7.33796 -3.2918,-4.9377 -3.2918,-12.1385 0,-6.2407 2.4003,-10.14971 2.4688,-3.90901 6.515,-6.10354 4.1147,-2.26311 9.2582,-3.42896 5.212,-1.16584 10.6297,-1.85163 6.9265,-0.96011 10.9041,-1.44016 3.9776,-0.48006 5.6235,-1.57732 1.7145,-1.09727 1.7145,-3.84043 v -0.68579 q 0,-3.97759 -1.9202,-6.99507 -1.8517,-3.08606 -5.4864,-4.80054 -3.5661,-1.78305 -8.6409,-1.78305 -5.0063,0 -8.9153,1.71447 -3.8404,1.6459 -6.1721,4.52622 -2.2631,2.88033 -2.5375,6.51502 h -11.8641 q 0.3429,-6.65217 4.1147,-11.79561 3.7719,-5.21201 10.2869,-8.22949 6.515,-3.01748 15.0874,-3.01748 6.3093,0 11.3841,1.71448 5.1434,1.71448 8.7096,4.86911 3.6346,3.15464 5.5549,7.54371 1.9202,4.38906 1.9202,9.73823 v 49.92558 h -11.5213 v -10.28686 h -0.2743 q -1.303,2.606 -3.8405,5.28059 -2.5374,2.606 -6.8579,4.38906 -4.2519,1.71448 -10.8355,1.71448 z m 1.6459,-10.42403 q 7.1323,0 11.5899,-2.53742 4.4576,-2.60601 6.515,-6.72075 2.0574,-4.11475 2.0574,-8.84671 v -9.05244 q -0.6858,0.61721 -2.5374,1.16585 -1.7831,0.54863 -4.4577,1.09726 -2.606,0.48006 -5.692,0.96011 -3.0175,0.48005 -6.1036,0.89153 -4.1833,0.54863 -7.9552,1.92021 -3.7032,1.303 -6.0349,3.77185 -2.3317,2.40027 -2.3317,6.51502 0,3.36037 1.783,5.82922 1.8517,2.40027 5.2121,3.70327 3.3603,1.303 7.9551,1.303 z"
         id="path18"
         style="fill:#4a4a4a;fill-opacity:1" />
      <path
         style="-inkscape-font-specification:'Inter, @opsz=32,wght=700';font-variation-settings:'opsz' 32, 'wght' 700;fill:#4a4a4a;fill-opacity:1"
         d="m 2765.4443,658.36715 q -10.8355,0 -19.065,-4.73196 -8.161,-4.80053 -12.7558,-13.30434 -4.5262,-8.57239 -4.5262,-19.75078 0,-11.24698 4.5262,-19.75078 4.5948,-8.57239 12.7558,-13.37293 8.2295,-4.80054 19.065,-4.80054 7.1322,0 13.1671,2.12596 6.035,2.05737 10.4926,5.8978 4.5263,3.84043 7.2008,9.12102 2.6746,5.21201 3.1547,11.58987 h -19.5451 q -0.4114,-2.81175 -1.5773,-5.07486 -1.0972,-2.26311 -2.8803,-3.909 -1.7831,-1.6459 -4.2519,-2.53743 -2.4003,-0.89153 -5.4863,-0.89153 -5.0749,0 -8.7096,2.67459 -3.6347,2.606 -5.6235,7.47512 -1.9202,4.80053 -1.9202,11.45271 0,6.58359 1.9202,11.38413 1.9888,4.80053 5.6235,7.47512 3.6347,2.60601 8.7096,2.60601 3.086,0 5.4863,-0.89153 2.4003,-0.89153 4.1147,-2.53743 1.7831,-1.6459 2.8804,-3.90901 1.0972,-2.33169 1.5773,-5.21201 h 19.6822 q -0.3429,6.30928 -3.0175,11.58987 -2.606,5.21201 -7.1322,9.12102 -4.5262,3.90901 -10.6298,6.03496 -6.0349,2.12595 -13.2357,2.12595 z m 71.3792,-0.41147 q -7.2008,0 -12.8243,-2.40027 -5.6235,-2.40027 -8.8467,-7.20081 -3.2233,-4.86911 -3.2233,-12.06992 0,-6.10354 2.2632,-10.14971 2.2631,-4.11474 6.1721,-6.58359 3.9776,-2.53743 9.0524,-3.84043 5.1434,-1.303 10.7669,-1.78306 6.6522,-0.68579 10.5612,-1.303 3.909,-0.61721 5.6235,-1.78306 1.7145,-1.16584 1.7145,-3.49753 v -0.48005 q 0,-2.67459 -1.4402,-4.66338 -1.4401,-2.05738 -4.1147,-3.22322 -2.606,-1.16584 -6.3093,-1.16584 -3.7033,0 -6.5836,1.16584 -2.8117,1.16584 -4.4576,3.2918 -1.6459,2.12595 -1.9203,4.93769 h -18.9964 q 0.4801,-7.47512 4.3891,-12.96145 3.9776,-5.48633 11.1098,-8.43523 7.1322,-3.01748 17.0762,-3.01748 7.4065,0 13.2358,1.71448 5.8292,1.6459 9.8068,4.86912 4.0461,3.22321 6.1035,7.81801 2.0574,4.5948 2.0574,10.42403 v 49.10263 h -19.7508 v -10.21828 h -0.2743 q -1.9202,3.56611 -4.732,6.10354 -2.8117,2.53742 -6.8579,3.97758 -4.0461,1.37159 -9.601,1.37159 z m 5.6234,-14.05872 q 4.8692,0 8.3667,-1.78306 3.5661,-1.78305 5.4863,-4.86911 1.9202,-3.08606 1.9202,-6.99507 v -7.26938 q -0.8915,0.48005 -2.3317,0.9601 -1.4401,0.41148 -3.3603,0.82295 -1.9202,0.3429 -4.1834,0.75437 -2.2631,0.41148 -4.6633,0.75437 -3.4976,0.54863 -6.3093,1.71448 -2.8118,1.09727 -4.4577,3.01748 -1.6459,1.85164 -1.6459,4.73196 0,2.53742 1.3716,4.38906 1.3716,1.85164 3.909,2.81174 2.5375,0.96011 5.8978,0.96011 z m 53.2471,12.82429 v -72.41953 h 19.4764 v 12.34424 h 0.2058 q 1.9887,-6.51501 6.2407,-9.66965 4.2519,-3.15464 11.4527,-3.15464 1.783,0 3.2232,0.0686 1.5087,0 2.7431,0.0686 v 17.21335 q -1.0972,-0.0686 -3.6346,-0.20574 -2.4689,-0.13715 -5.0749,-0.13715 -4.1147,0 -7.4065,1.92021 -3.2918,1.85164 -5.1435,5.55491 -1.8516,3.70327 -1.8516,9.1896 v 39.22724 z m 100.199,-72.41953 v 15.84177 h -47.5253 v -15.84177 z m -35.0439,-19.75078 h 20.2308 v 69.81353 q 0,3.63469 1.4402,5.07485 1.5087,1.44016 5.6235,1.44016 1.7144,0 4.0461,0 2.4003,0 3.7033,0 v 15.84177 q -1.8516,0 -5.1434,0 -3.2918,0 -6.6522,0 -11.9328,0 -17.6248,-4.66338 -5.6235,-4.66338 -5.6235,-14.53877 z m 72.0513,93.40474 q -7.2008,0 -12.8243,-2.40027 -5.6235,-2.40027 -8.8467,-7.20081 -3.2232,-4.86911 -3.2232,-12.06992 0,-6.10354 2.2631,-10.14971 2.2631,-4.11474 6.1721,-6.58359 3.9776,-2.53743 9.0525,-3.84043 5.1434,-1.303 10.7669,-1.78306 6.6522,-0.68579 10.5612,-1.303 3.909,-0.61721 5.6235,-1.78306 1.7144,-1.16584 1.7144,-3.49753 v -0.48005 q 0,-2.67459 -1.4401,-4.66338 -1.4402,-2.05738 -4.1148,-3.22322 -2.606,-1.16584 -6.3092,-1.16584 -3.7033,0 -6.5836,1.16584 -2.8118,1.16584 -4.4577,3.2918 -1.6459,2.12595 -1.9202,4.93769 h -18.9964 q 0.4801,-7.47512 4.3891,-12.96145 3.9775,-5.48633 11.1098,-8.43523 7.1322,-3.01748 17.0762,-3.01748 7.4065,0 13.2357,1.71448 5.8293,1.6459 9.8068,4.86912 4.0462,3.22321 6.1036,7.81801 2.0574,4.5948 2.0574,10.42403 v 49.10263 h -19.7508 v -10.21828 h -0.2743 q -1.9203,3.56611 -4.732,6.10354 -2.8117,2.53742 -6.8579,3.97758 -4.0462,1.37159 -9.6011,1.37159 z m 5.6235,-14.05872 q 4.8691,0 8.3667,-1.78306 3.5661,-1.78305 5.4863,-4.86911 1.9202,-3.08606 1.9202,-6.99507 v -7.26938 q -0.8915,0.48005 -2.3317,0.9601 -1.4401,0.41148 -3.3604,0.82295 -1.9202,0.3429 -4.1833,0.75437 -2.2631,0.41148 -4.6634,0.75437 -3.4975,0.54863 -6.3092,1.71448 -2.8118,1.09727 -4.4577,3.01748 -1.6459,1.85164 -1.6459,4.73196 0,2.53742 1.3716,4.38906 1.3716,1.85164 3.909,2.81174 2.5374,0.96011 5.8978,0.96011 z"
         id="path19" />
    </g>
  </g>
</svg>
